<svg width="21" height="37" viewBox="0 0 21 37" fill="none" xmlns="http://www.w3.org/2000/svg">
<path d="M2.51137 1.02704L1.38475 2.21293C1.03291 2.58615 0.839079 3.0827 0.839079 3.6134C0.839079 4.1438 1.03291 4.64094 1.38475 5.01416L14.1482 18.542L1.37059 32.0855C1.01875 32.4581 0.825195 32.9552 0.825195 33.4856C0.825195 34.016 1.01875 34.5135 1.37059 34.8864L2.49026 36.0726C3.21838 36.8449 4.40442 36.8449 5.13254 36.0726L20.4006 19.9475C20.7521 19.5749 20.9998 19.0783 20.9998 18.5432L20.9998 18.537C20.9998 18.0063 20.7518 17.5098 20.4006 17.1371L5.17392 1.02704C4.82235 0.653814 4.33972 0.448953 3.83931 0.448364C3.33862 0.448364 2.86265 0.653815 2.51137 1.02704Z" fill="#484848"/>
</svg>
