<svg width="21" height="37" viewBox="0 0 21 37" fill="none" xmlns="http://www.w3.org/2000/svg">
<path d="M18.4886 36.0731L19.6152 34.8872C19.9671 34.5139 20.1609 34.0174 20.1609 33.4867C20.1609 32.9563 19.9671 32.4592 19.6152 32.0859L6.85177 18.5581L19.6294 5.01463C19.9812 4.64199 20.1748 4.14485 20.1748 3.61445C20.1748 3.08405 19.9813 2.58662 19.6294 2.21369L18.5097 1.0275C17.7816 0.255155 16.5956 0.255155 15.8675 1.0275L0.599435 17.1526C0.247871 17.5252 0.000165215 18.0218 0.000165193 18.5569L0.000165192 18.5631C0.00016517 19.0938 0.248149 19.5903 0.599435 19.963L15.8261 36.0731C16.1776 36.4463 16.6603 36.6511 17.1607 36.6517C17.6614 36.6517 18.1373 36.4463 18.4886 36.0731Z" fill="#484848"/>
</svg>
