<svg width="39" height="37" viewBox="0 0 39 37" fill="none" xmlns="http://www.w3.org/2000/svg">
<path fill-rule="evenodd" clip-rule="evenodd" d="M1 0C0.447715 0 0 0.447715 0 1C0 1.55228 0.447715 2 1 2H5.21922L7.52986 11.2425C7.64115 11.6877 8.04113 12 8.5 12H35.8626L31.5292 25H13.5C12.5717 25 11.6815 25.3687 11.0251 26.0251C10.3687 26.6815 10 27.5717 10 28.5C10 29.4283 10.3687 30.3185 11.0251 30.9749C11.0336 30.9833 11.042 30.9917 11.0505 31C10.4022 31.6353 10 32.5207 10 33.5C10 35.433 11.567 37 13.5 37C15.433 37 17 35.433 17 33.5C17 32.9632 16.8792 32.4546 16.6632 32H26.5868C26.3708 32.4546 26.25 32.9632 26.25 33.5C26.25 35.433 27.817 37 29.75 37C31.683 37 33.25 35.433 33.25 33.5C33.25 32.9632 33.1292 32.4546 32.9132 32H33.5C34.0523 32 34.5 31.5523 34.5 31C34.5 30.4477 34.0523 30 33.5 30H29.75H13.5C13.1022 30 12.7206 29.842 12.4393 29.5607C12.158 29.2794 12 28.8978 12 28.5C12 28.1022 12.158 27.7206 12.4393 27.4393C12.7206 27.158 13.1022 27 13.5 27H32.25C32.6804 27 33.0626 26.7246 33.1987 26.3162L38.1987 11.3162C38.3003 11.0113 38.2492 10.6761 38.0612 10.4153C37.8733 10.1545 37.5714 10 37.25 10H9.28078L6.97014 0.757464C6.85885 0.312297 6.45887 0 6 0H1ZM29.75 32C28.9216 32 28.25 32.6716 28.25 33.5C28.25 34.3284 28.9216 35 29.75 35C30.5784 35 31.25 34.3284 31.25 33.5C31.25 32.6716 30.5784 32 29.75 32ZM13.5 32C12.6716 32 12 32.6716 12 33.5C12 34.3284 12.6716 35 13.5 35C14.3284 35 15 34.3284 15 33.5C15 32.6716 14.3284 32 13.5 32Z" fill="#202020"/>
</svg>
