<svg width="163" height="54" viewBox="0 0 163 54" fill="none" xmlns="http://www.w3.org/2000/svg">
<path d="M41.1792 35.7177C40.6231 32.9712 38.3984 31.1403 36.869 30.0941C37.8423 28.3939 39.5108 25.2552 38.8155 23.8166C38.6765 23.2934 38.3984 23.1627 37.9813 23.1627C37.5642 23.1627 36.869 23.4242 36.0347 23.6858C36.1739 23.1627 36.591 21.0702 36.4519 18.7161C36.4519 18.7161 37.9813 18.4545 39.6497 19.7623C39.6497 13.8772 35.0616 10.3461 35.0616 10.3461C35.0616 10.3461 37.4252 9.56147 38.9547 10.0846C34.0882 3.02239 25.885 4.98412 25.885 4.98412C25.885 4.98412 25.746 3.0224 27.6926 2.10693C10.3127 2.10693 9.75659 13.6157 9.75659 13.6157C9.75659 13.6157 8.36622 12.3079 7.67101 10.4769C5.86353 14.4004 7.25391 23.0319 7.39294 23.555C6.69775 23.2934 6.00256 23.0319 5.44641 23.0319C4.89025 23.0319 4.75122 23.2934 4.61217 23.8166C3.91699 25.2552 5.58545 28.3939 6.55872 30.0941C5.0293 31.1403 2.80469 32.8405 2.24854 35.7177C2.24854 35.7177 3.77796 35.3253 5.16833 35.1945C4.19506 38.5948 3.49988 43.1722 5.58545 46.3109C6.14159 45.3955 7.53198 44.2184 7.53198 44.2184C8.36622 45.5262 13.0935 49.3189 18.0989 50.7575C19.4892 51.5422 20.4626 51.9345 20.6016 51.9345L21.7139 52.3269L22.8263 51.9345C22.9652 51.9345 23.9384 51.5422 25.3289 50.7575C30.3342 49.3189 35.0616 45.5262 35.8958 44.2184C35.8958 44.2184 37.2861 45.5262 37.8423 46.3109C39.9279 43.1722 39.2326 38.5948 38.2594 35.1945C39.6497 35.3253 41.1792 35.7177 41.1792 35.7177Z" fill="#474747"/>
<path fill-rule="evenodd" clip-rule="evenodd" d="M32.4196 27.871C32.4196 24.4707 28.5267 23.2936 26.024 24.7322C24.7725 25.5169 23.5212 26.4324 21.7138 26.4324C19.9062 26.4324 18.794 25.5169 17.4035 24.7322C14.9009 23.2936 11.0078 24.4707 11.0078 27.871C11.0078 31.2713 14.9009 33.7561 14.4838 33.7561C8.7832 44.3494 21.7138 49.3191 21.7138 49.3191C21.7138 49.3191 34.6443 44.3494 28.9438 33.7561C28.6656 33.7561 32.4196 31.1405 32.4196 27.871Z" fill="#8C8C8C"/>
<path d="M21.7137 53.373L20.1842 52.7191C20.0452 52.7191 19.0719 52.3268 17.6816 51.5421C13.3713 50.2343 9.33923 47.4879 7.53175 45.6569C7.11462 46.0493 6.83654 46.4416 6.55847 46.7032L5.72425 48.2725L4.75098 46.834C2.66541 43.826 2.94349 39.7718 3.63867 36.3715C2.94349 36.5022 2.52636 36.633 2.52636 36.633L0.85791 37.0254L1.13599 35.456C1.69214 32.8404 3.49964 30.8786 5.16809 29.7016C3.08252 25.7782 3.22156 24.2088 3.49964 23.4241C3.7777 22.3779 4.75098 21.8547 6.00233 22.1163C5.72425 19.2391 5.16809 13.354 6.69751 10.2152L7.67078 7.99196L8.64404 10.2152C8.78309 10.6076 9.06115 10.8691 9.2002 11.2615C10.4515 7.59961 14.4836 1.06055 27.5532 1.06055H31.7244L27.9703 3.02227C27.5532 3.28383 27.2752 3.54539 26.9971 3.80696C29.9169 3.67618 35.7565 4.06852 39.5105 9.56133L41.179 12.0462L38.12 10.9999C37.8421 10.8691 37.2858 10.8691 36.7297 10.8691C38.2592 12.4385 40.2058 15.4465 40.2058 19.6315V21.724L38.3982 20.2854C37.8421 19.893 37.425 19.7622 37.0079 19.6315C37.0079 20.5469 37.0079 21.3316 36.8687 21.9855C38.12 21.724 38.9543 22.2471 39.3715 23.2933C39.7887 24.078 39.9276 25.6474 37.8421 29.5708C39.5105 30.7479 41.3179 32.5788 41.8742 35.3252L42.1522 36.8946L40.4837 36.5022C40.4837 36.5022 40.0666 36.3715 39.3715 36.2407C40.0666 39.5102 40.3447 43.6952 38.3982 46.5724L37.425 48.011L36.5908 46.4416C36.4516 46.18 36.0345 45.7877 35.7565 45.3954C33.949 47.2263 29.9169 50.1035 25.4676 51.2805C24.0773 52.0652 23.104 52.4575 22.965 52.4575L21.7137 53.373ZM7.80981 42.3874L8.50501 43.5644C9.2002 44.6107 13.6494 48.2725 18.5158 49.7111L18.7937 49.8419C20.0452 50.6266 21.0184 51.019 21.1574 51.019L21.8527 51.2805L22.5479 51.019C22.5479 51.019 23.5211 50.6266 24.9116 49.8419L25.1895 49.7111C30.0558 48.4033 34.5051 44.6107 35.2003 43.5644L35.8955 42.3874L36.8687 43.3029C37.0079 43.4336 37.425 43.6952 37.8421 44.2183C38.8153 41.4719 38.2592 37.9408 37.425 35.3252L37.0079 33.8866L38.6763 34.1482C38.9543 34.1482 39.3715 34.279 39.7887 34.279C38.9543 32.7096 37.564 31.6633 36.4516 31.0094L35.6174 30.4863L36.0345 29.7016C38.3982 25.5166 37.9811 24.4704 37.9811 24.3396C37.564 24.4704 37.0079 24.6011 36.5908 24.7319L34.2271 25.3858L34.9222 23.4241C35.0613 23.0318 35.4784 21.07 35.3393 18.716V17.8005L36.3126 17.6697C36.4516 17.6697 37.2858 17.539 38.3982 17.9313C37.7029 13.7463 34.3661 11.2615 34.3661 11.1307L32.8366 9.95368L34.7832 9.43055C34.9222 9.43055 35.7565 9.16899 36.7297 9.03821C32.4195 4.59164 26.4408 5.89946 26.1629 6.03024L24.9116 6.2918V5.11477C24.9116 5.11477 24.9116 4.1993 25.3287 3.28383C11.4248 4.1993 10.8686 13.354 10.8686 13.7463L10.7296 16.1004L8.92212 14.4002C8.92212 14.4002 8.50501 14.0079 7.94886 13.354C7.3927 17.4082 8.22693 23.0318 8.36596 23.5549L8.92212 25.5166L6.97559 24.6011C6.55847 24.4704 6.00233 24.2088 5.5852 24.2088C5.5852 24.3396 5.16809 25.3858 7.53175 29.5708L7.94886 30.3555L7.11462 30.8786C6.00233 31.5325 4.61194 32.7096 3.7777 34.1482C4.05578 34.1482 4.47291 34.0174 4.89002 34.0174L6.55847 33.7558L6.14136 35.1944C5.30712 37.81 4.75098 41.3411 5.72425 44.0875C6.14136 43.5644 6.55847 43.1721 6.69751 43.1721L7.80981 42.3874Z" fill="#BEC0B5"/>
<path d="M53.2753 40.9486C50.7727 39.6408 48.8261 37.9406 47.4358 35.5866C46.0453 33.2325 45.3501 30.6169 45.3501 27.4781C45.3501 24.3394 46.0453 21.7238 47.4358 19.3697C48.8261 17.0156 50.7727 15.1847 53.2753 14.0077C55.778 12.8307 58.6979 12.1768 61.8956 12.1768C66.2059 12.1768 69.8209 13.223 72.7406 15.3155V19.3697C70.099 17.2772 66.623 16.1002 62.3127 16.1002C59.9492 16.1002 57.7245 16.6233 55.9171 17.5388C54.1095 18.4542 52.5801 19.762 51.6069 21.593C50.4946 23.2931 50.0774 25.3856 50.0774 27.6089C50.0774 29.8322 50.6335 31.9247 51.6069 33.6249C52.5801 35.325 54.1095 36.7636 56.0561 37.6791C57.8635 38.5945 60.0882 39.1177 62.4519 39.1177C64.6764 39.1177 66.623 38.8561 68.4306 38.333C70.238 37.8099 71.7674 36.8944 73.2969 35.7174V39.9024C70.377 41.8641 66.7621 42.9103 61.8956 42.9103C58.6979 42.9103 55.778 42.2564 53.2753 40.9486Z" fill="#484848"/>
<path d="M78.8583 41.0797C77.329 39.7719 76.4946 38.2025 76.4946 35.9792C76.4946 33.7559 77.1899 32.0558 78.7193 30.7479C80.2488 29.5709 82.3343 28.917 85.1151 28.917C88.0349 28.917 90.5375 29.4401 92.6231 30.6172V29.5709C92.6231 28.0015 92.067 26.8245 91.0938 26.0398C90.1204 25.2551 88.452 24.8628 86.2274 24.8628C84.837 24.8628 83.5856 24.9936 82.3343 25.2551C81.083 25.5167 79.9707 25.7783 78.9975 26.3014V22.9011C79.8317 22.5087 81.083 22.2472 82.4733 21.9856C83.8638 21.724 85.2541 21.5933 86.6446 21.5933C90.2596 21.5933 92.7622 22.3779 94.5696 23.8165C96.2381 25.2551 97.0723 27.3476 97.0723 29.9633V42.5183H92.7622V40.295C91.7888 41.2104 90.6767 41.9951 89.4253 42.5183C88.1738 43.0414 86.6446 43.1722 84.837 43.1722C82.4733 42.9106 80.3878 42.2567 78.8583 41.0797ZM90.1204 38.8564C91.2328 38.3333 92.2059 37.5486 92.7622 36.6331V33.8867C90.8156 32.7097 88.5909 32.0558 86.2274 32.0558C84.5588 32.0558 83.1685 32.3173 82.3343 32.9712C81.5001 33.6251 81.083 34.5406 81.083 35.8484C81.083 38.3333 82.7514 39.5103 86.2274 39.5103C87.6178 39.6411 88.8691 39.3795 90.1204 38.8564Z" fill="#484848"/>
<path d="M104.997 41.0798C103.885 39.9027 103.19 38.2026 103.19 36.1101V25.386H99.9922V22.1165H103.19V16.1006H107.778V22.1165H113.062V25.386H107.778V35.8485C107.778 37.1563 108.056 38.2026 108.612 38.7257C109.169 39.2488 110.142 39.5104 111.671 39.5104C112.506 39.5104 113.34 39.3796 114.313 38.9873V42.3876C113.201 42.7799 111.81 42.9107 110.142 42.9107C107.917 42.9107 106.249 42.2568 104.997 41.0798Z" fill="#484848"/>
<path d="M120.292 40.6871C118.762 39.2485 118.067 37.2868 118.067 34.8019V21.9854H122.516V34.6711C122.516 37.9407 124.185 39.51 127.661 39.51C130.719 39.51 133.083 38.2022 134.752 35.7174V21.9854H139.201V42.2564H134.752V39.3793C133.778 40.5563 132.527 41.4718 131.137 41.9949C129.746 42.518 128.495 42.9104 126.826 42.9104C123.907 42.9104 121.682 42.1257 120.292 40.6871Z" fill="#484848"/>
<path d="M148.377 42.3874C146.709 41.9951 145.318 41.6027 144.484 40.9488V37.2869C145.597 37.9408 146.987 38.464 148.516 38.8563C150.046 39.2487 151.575 39.5102 152.966 39.5102C154.634 39.5102 155.746 39.3794 156.58 38.9871C157.276 38.5947 157.693 38.0716 157.693 37.1562C157.693 36.5022 157.554 35.9791 157.137 35.7176C156.859 35.3252 156.163 35.0637 155.329 34.6713C154.495 34.4097 153.244 34.0174 151.575 33.6251C149.768 33.1019 148.377 32.7096 147.404 32.1865C146.431 31.6633 145.597 31.0094 145.04 30.3555C144.484 29.7016 144.206 28.6554 144.206 27.3476C144.206 25.3858 145.04 23.9472 146.709 22.901C148.377 21.8547 150.602 21.4624 153.244 21.4624C154.634 21.4624 156.024 21.5932 157.415 21.8547C158.805 22.1163 159.917 22.5087 160.752 22.901V26.4321C159.917 25.909 158.805 25.6474 157.554 25.2551C156.302 24.9935 155.051 24.8627 153.661 24.8627C152.131 24.8627 150.88 24.9935 150.046 25.3858C149.212 25.7782 148.794 26.4321 148.794 27.3476C148.794 28.0015 148.933 28.3938 149.351 28.7862C149.768 29.1785 150.324 29.4401 151.019 29.7016C151.853 29.9632 153.104 30.3555 154.773 30.7479C157.415 31.4018 159.361 32.3172 160.474 33.2327C161.586 34.1482 162.003 35.456 162.003 37.1562C162.003 38.8563 161.169 40.2949 159.778 41.3412C158.249 42.3874 156.024 42.9105 152.966 42.9105C151.575 42.9105 150.046 42.7797 148.377 42.3874Z" fill="#484848"/>
</svg>
