<svg width="35" height="35" viewBox="0 0 35 35" fill="none" xmlns="http://www.w3.org/2000/svg">
<path fill-rule="evenodd" clip-rule="evenodd" d="M2.50879 13.7628C2.50879 7.7488 7.35327 2.88379 13.3166 2.88379C19.2799 2.88379 24.1244 7.7488 24.1244 13.7628C24.1244 19.7767 19.2799 24.6418 13.3166 24.6418C7.35327 24.6418 2.50879 19.7767 2.50879 13.7628ZM13.3166 0.883789C6.23739 0.883789 0.508789 6.65558 0.508789 13.7628C0.508789 20.87 6.23739 26.6418 13.3166 26.6418C16.4948 26.6418 19.4007 25.4784 21.6383 23.5532L32.7125 34.6942C33.1019 35.0859 33.7351 35.0878 34.1268 34.6984C34.5184 34.3091 34.5203 33.6759 34.131 33.2842L23.0489 22.1353C24.9667 19.8831 26.1244 16.9579 26.1244 13.7628C26.1244 6.65558 20.3958 0.883789 13.3166 0.883789Z" fill="#202020"/>
</svg>
